REM DIRINDEX 1\5,1\2\6,1\2\7,1\3\8,1\3\9,1\4\10,1\4\11,1\4\12
REM DIRNAME folder01,folder02,folder03,folder04,folder05,folder06,folder07,folder08,folder09,folder10,folder11,folder12
TITLE ""
FILE "EJE_DB3000_5th_1A_08.mp3" MP3
  TRACK 01 AUDIO
    TITLE "0:"
    INDEX 01 00:00:00
  TRACK 02 AUDIO
    TITLE "10:cjc026_07092"
    INDEX 01 00:00:05
  TRACK 03 AUDIO
    TITLE "0:"
    INDEX 01 00:00:66
  TRACK 04 AUDIO
    TITLE "11:cjc026_07093"
    INDEX 01 00:01:17
  TRACK 05 AUDIO
    TITLE "0:"
    INDEX 01 00:02:26
  TRACK 06 AUDIO
    TITLE "12:cjc026_07094"
    INDEX 01 00:02:49
  TRACK 07 AUDIO
    TITLE "0:"
    INDEX 01 00:03:35
  TRACK 08 AUDIO
    TITLE "10:cjc026_07095"
    INDEX 01 00:03:63
  TRACK 09 AUDIO
    TITLE "0:"
    INDEX 01 00:04:58
  TRACK 10 AUDIO
    TITLE "11:cjc026_07096"
    INDEX 01 00:05:09
  TRACK 11 AUDIO
    TITLE "0:"
    INDEX 01 00:06:14
  TRACK 12 AUDIO
    TITLE "12:cjc026_07097"
    INDEX 01 00:06:41
  TRACK 13 AUDIO
    TITLE "0:"
    INDEX 01 00:07:37
  TRACK 14 AUDIO
    TITLE "10:cjc026_07098"
    INDEX 01 00:07:62
  TRACK 15 AUDIO
    TITLE "0:"
    INDEX 01 00:08:56
  TRACK 16 AUDIO
    TITLE "11:cjc026_07099"
    INDEX 01 00:09:08
  TRACK 17 AUDIO
    TITLE "0:"
    INDEX 01 00:10:18
  TRACK 18 AUDIO
    TITLE "12:cjc026_07100"
    INDEX 01 00:10:43
  TRACK 19 AUDIO
    TITLE "0:"
    INDEX 01 00:11:39
  TRACK 20 AUDIO
    TITLE "10:cjc026_07101"
    INDEX 01 00:11:66
  TRACK 21 AUDIO
    TITLE "0:"
    INDEX 01 00:12:56
  TRACK 22 AUDIO
    TITLE "11:cjc026_07102"
    INDEX 01 00:13:08
  TRACK 23 AUDIO
    TITLE "0:"
    INDEX 01 00:14:15
  TRACK 24 AUDIO
    TITLE "12:cjc026_07103"
    INDEX 01 00:14:43
  TRACK 25 AUDIO
    TITLE "0:"
    INDEX 01 00:15:32
  TRACK 26 AUDIO
    TITLE "10:cjc026_07104"
    INDEX 01 00:15:58
  TRACK 27 AUDIO
    TITLE "0:"
    INDEX 01 00:16:59
  TRACK 28 AUDIO
    TITLE "11:cjc026_07105"
    INDEX 01 00:17:08
  TRACK 29 AUDIO
    TITLE "0:"
    INDEX 01 00:18:13
  TRACK 30 AUDIO
    TITLE "12:cjc026_07106"
    INDEX 01 00:18:39
  TRACK 31 AUDIO
    TITLE "0:"
    INDEX 01 00:19:38
  TRACK 32 AUDIO
    TITLE "10:cjc026_07107"
    INDEX 01 00:19:65
  TRACK 33 AUDIO
    TITLE "0:"
    INDEX 01 00:20:53
  TRACK 34 AUDIO
    TITLE "11:cjc026_07108"
    INDEX 01 00:21:04
  TRACK 35 AUDIO
    TITLE "0:"
    INDEX 01 00:22:11
  TRACK 36 AUDIO
    TITLE "12:cjc026_07109"
    INDEX 01 00:22:38
  TRACK 37 AUDIO
    TITLE "0:"
    INDEX 01 00:23:24
  TRACK 38 AUDIO
    TITLE "10:cjc026_07110"
    INDEX 01 00:23:50
  TRACK 39 AUDIO
    TITLE "0:"
    INDEX 01 00:24:49
  TRACK 40 AUDIO
    TITLE "11:cjc026_07111"
    INDEX 01 00:24:74
  TRACK 41 AUDIO
    TITLE "0:"
    INDEX 01 00:26:03
  TRACK 42 AUDIO
    TITLE "12:cjc026_07112"
    INDEX 01 00:26:28
  TRACK 43 AUDIO
    TITLE "0:"
    INDEX 01 00:27:28
  TRACK 44 AUDIO
    TITLE "10:cjc026_07113"
    INDEX 01 00:27:53
  TRACK 45 AUDIO
    TITLE "0:"
    INDEX 01 00:28:45
  TRACK 46 AUDIO
    TITLE "11:cjc026_07114"
    INDEX 01 00:28:70
  TRACK 47 AUDIO
    TITLE "0:"
    INDEX 01 00:30:06
  TRACK 48 AUDIO
    TITLE "12:cjc026_07115"
    INDEX 01 00:30:32
  TRACK 49 AUDIO
    TITLE "0:"
    INDEX 01 00:31:24
  TRACK 50 AUDIO
    TITLE "10:cjc026_07116"
    INDEX 01 00:31:49
  TRACK 51 AUDIO
    TITLE "0:"
    INDEX 01 00:32:33
  TRACK 52 AUDIO
    TITLE "11:cjc026_07117"
    INDEX 01 00:32:60
  TRACK 53 AUDIO
    TITLE "0:"
    INDEX 01 00:33:54
  TRACK 54 AUDIO
    TITLE "12:cjc026_07118"
    INDEX 01 00:34:04
  TRACK 55 AUDIO
    TITLE "0:"
    INDEX 01 00:34:63
  TRACK 56 AUDIO
    TITLE "10:cjc026_07119"
    INDEX 01 00:35:15
  TRACK 57 AUDIO
    TITLE "0:"
    INDEX 01 00:36:07
  TRACK 58 AUDIO
    TITLE "11:cjc026_07120"
    INDEX 01 00:36:33
  TRACK 59 AUDIO
    TITLE "0:"
    INDEX 01 00:37:28
  TRACK 60 AUDIO
    TITLE "12:cjc026_07121"
    INDEX 01 00:37:54
  TRACK 61 AUDIO
    TITLE "0:"
    INDEX 01 00:38:45
  TRACK 62 AUDIO
    TITLE "10:cjc026_07122"
    INDEX 01 00:38:71
  TRACK 63 AUDIO
    TITLE "0:"
    INDEX 01 00:39:66
  TRACK 64 AUDIO
    TITLE "11:cjc026_07123"
    INDEX 01 00:40:19
  TRACK 65 AUDIO
    TITLE "0:"
    INDEX 01 00:41:40
  TRACK 66 AUDIO
    TITLE "12:cjc026_07124"
    INDEX 01 00:41:67
  TRACK 67 AUDIO
    TITLE "0:"
    INDEX 01 00:42:63
  TRACK 68 AUDIO
    TITLE "10:cjc026_07125"
    INDEX 01 00:43:13
  TRACK 69 AUDIO
    TITLE "0:"
    INDEX 01 00:44:05
  TRACK 70 AUDIO
    TITLE "11:cjc026_07126"
    INDEX 01 00:44:34
  TRACK 71 AUDIO
    TITLE "0:"
    INDEX 01 00:45:53
  TRACK 72 AUDIO
    TITLE "12:cjc026_07127"
    INDEX 01 00:46:02
  TRACK 73 AUDIO
    TITLE "0:"
    INDEX 01 00:46:68
